<svg width="558" height="100" viewBox="0 0 558 100" fill="none" xmlns="http://www.w3.org/2000/svg" xmlns:xlink="http://www.w3.org/1999/xlink">
<g filter="url(#filter393_127)">
<path d="M0,50C0,22.386 22.386,0 50,0L508,0C535.614,0 558,22.386 558,50L558,50C558,77.614 535.614,100 508,100L50,100C22.386,100 0,77.614 0,50L0,50Z" fill="#FFFFFF"/>
</g>
<path d="M78.053,67.689C82.814,67.689 87.259,66.155 90.872,63.598L104.465,77.063C105.096,77.688 105.928,78 106.788,78C108.652,78 110,76.58 110,74.762C110,73.91 109.713,73.114 109.082,72.489L95.575,59.082C98.414,55.389 100.106,50.815 100.106,45.844C100.106,33.829 90.184,24 78.053,24C65.894,24 56,33.829 56,45.844C56,57.86 65.894,67.689 78.053,67.689ZM78.053,62.973C68.561,62.973 60.76,55.218 60.76,45.844C60.76,36.47 68.561,28.715 78.053,28.715C87.517,28.715 95.346,36.47 95.346,45.844C95.346,55.218 87.517,62.973 78.053,62.973Z" fill="#0A0909"/>
<defs>
<filter id="filter393_127" x="-4" y="-4" width="287" height="58" filterUnits="userSpaceOnUse" color-interpolation-filters="sRGB">
<feFlood flood-opacity="0" result="BackgroundImageFix"/>
<feColorMatrix in="SourceAlpha" type="matrix" values="0 0 0 0 0 0 0 0 0 0 0 0 0 0 0 0 0 0 127 0" result="hardAlpha"/>
<feMorphology radius="0" operator="dilate" in="SourceAlpha" result="0dropshadow"/>
<feOffset dx="0" dy="4"/>
<feGaussianBlur stdDeviation="2"/>
<feComposite in2="hardAlpha" operator="out"/>
<feColorMatrix type="matrix" values="0 0 0 0 0 0 0 0 0 0 0 0 0 0 0 0 0 0 0.25 0"/>
<feBlend mode="normal" in2="BackgroundImageFix" result="0dropshadow"/>
<feBlend mode="normal" in="SourceGraphic" in2="0dropshadow" result="shape"/>
</filter>
</defs>
</svg>
