<svg width="630" height="144" viewBox="0 0 630 144" fill="none" xmlns="http://www.w3.org/2000/svg" xmlns:xlink="http://www.w3.org/1999/xlink">
<mask id="mask_0_393_133" style="mask-type:alpha" maskUnits="userSpaceOnUse" x="268" y="24" width="48" height="48">
<rect  x="268" y="24" width="96" height="96" fill="#D9D9D9"/>
</mask>
<mask id="mask_0_393_136" style="mask-type:alpha" maskUnits="userSpaceOnUse" x="32" y="24" width="48" height="48">
<rect  x="32" y="24" width="96" height="96" fill="#D9D9D9"/>
</mask>
<mask id="mask_0_393_139" style="mask-type:alpha" maskUnits="userSpaceOnUse" x="508" y="24" width="48" height="48">
<rect  x="508" y="24" width="96" height="96" fill="#D9D9D9"/>
</mask>
<g filter="url(#filter393_129)">
<rect  x="0" y="0" width="162" height="144" rx="48" fill="#1EB2A6"/>
</g>
<g filter="url(#filter393_130)">
<rect  x="234" y="0" width="162" height="144" rx="48" fill="#1EB2A6"/>
</g>
<g filter="url(#filter393_131)">
<rect  x="468" y="0" width="162" height="144" rx="48" fill="#1EB2A6"/>
</g>
<g mask="url(#mask_0_393_133)">
<path d="M290.2,110.1L290.2,74C286.867,72.867 283.983,70.917 281.55,68.15C279.117,65.383 277.9,62.033 277.9,58.1C277.9,54.074 279.017,50.567 281.25,47.58C283.483,44.593 286.354,42.325 289.862,40.775C291.421,37.592 293.75,34.95 296.85,32.85C299.95,30.75 303.431,29.7 307.293,29.7C309.557,29.7 311.654,30.076 313.585,30.829C315.516,31.581 317.352,32.705 319.095,34.2C319.565,34.133 320.075,34.033 320.624,33.9C321.173,33.767 321.732,33.7 322.3,33.7C327.243,33.7 331.479,35.513 335.008,39.138C338.536,42.763 340.3,47.084 340.3,52.1C340.3,53.332 340.1,54.54 339.7,55.724C339.3,56.908 338.767,57.867 338.1,58.6L345.1,58.6C347.597,58.6 349.738,59.49 351.523,61.271C353.308,63.051 354.2,65.194 354.2,67.7L354.2,90.2C354.2,92.706 353.314,94.849 351.543,96.629C349.772,98.41 347.624,99.3 345.1,99.3L335.5,99.3L335.5,110.1L290.2,110.1ZM287,58.149C287,60.249 287.762,61.983 289.286,63.35C290.809,64.717 292.614,65.4 294.7,65.4C296.439,65.4 298.123,65.017 299.754,64.25C301.385,63.483 303.2,61.833 305.2,59.3C307.333,56.833 309.454,54.933 311.561,53.6C313.668,52.267 315.981,51.6 318.5,51.6L330.6,51.6C330.467,49.333 329.648,47.317 328.143,45.55C326.638,43.783 324.695,42.9 322.314,42.9C321.389,42.9 320.439,43.05 319.464,43.35C318.488,43.65 317.733,43.933 317.2,44.2L314.5,42C313.389,41.064 312.211,40.313 310.966,39.748C309.722,39.183 308.547,38.9 307.442,38.9C305.373,38.9 303.482,39.45 301.769,40.55C300.056,41.65 298.8,43.033 298,44.7L296.4,48.2L292.2,49.8C290.673,50.4 289.424,51.554 288.455,53.261C287.485,54.968 287,56.598 287,58.149ZM335.5,90.2L345,90.2L345,67.7L335.5,67.7L335.5,90.2Z" fill="#FFFFFF"/>
</g>
<g mask="url(#mask_0_393_136)">
<path d="M38.2,90.1C38.2,83.033 41.283,77.517 47.45,73.55C53.617,69.583 60.567,67.6 68.3,67.6C75.967,67.6 82.9,69.583 89.1,73.55C95.3,77.517 98.4,83.033 98.4,90.1L38.2,90.1ZM38.2,103.9L38.2,95.2L98.4,95.2L98.4,103.9L38.2,103.9ZM42.8,117.9C41.51,117.9 40.421,117.451 39.533,116.554C38.644,115.657 38.2,114.577 38.2,113.313L38.2,109.1L98.4,109.1L98.4,113.341C98.4,114.613 97.956,115.691 97.069,116.574C96.182,117.458 95.125,117.9 93.9,117.9L42.8,117.9ZM104.4,117.9L104.4,89C104.4,82.103 102.033,76.129 97.3,71.077C92.567,66.026 86.767,62.867 79.9,61.6L79.1,44.6L99.6,44.6L99.6,26.1L107.6,26.1L107.6,44.6L129.8,44.6L122.9,109.6C122.677,112.039 121.686,114.032 119.927,115.579C118.168,117.126 116.125,117.9 113.8,117.9L104.4,117.9Z" fill="#FFFFFF"/>
</g>
<g mask="url(#mask_0_393_139)">
<path d="M574,116.2C566.822,116.2 560.744,113.735 555.767,108.806C550.789,103.876 548.3,97.833 548.3,90.676C548.3,83.492 550.781,77.417 555.743,72.45C560.704,67.483 566.763,65 573.918,65C581.073,65 587.108,67.488 592.025,72.463C596.942,77.438 599.4,83.513 599.4,90.688C599.4,97.863 596.947,103.908 592.042,108.825C587.136,113.742 581.122,116.2 574,116.2ZM573.975,107C578.525,107 582.383,105.414 585.55,102.242C588.717,99.07 590.3,95.203 590.3,90.642C590.3,86.081 588.712,82.2 585.537,79C582.362,75.8 578.491,74.2 573.925,74.2C569.308,74.2 565.417,75.8 562.25,78.999C559.083,82.198 557.5,86.101 557.5,90.708C557.5,95.236 559.089,99.083 562.266,102.25C565.443,105.417 569.346,107 573.975,107ZM521.7,106.8C519.221,106.8 517.085,105.87 515.291,104.009C513.497,102.149 512.6,100.013 512.6,97.6L512.6,64.978C512.6,63.902 512.667,63.035 512.8,62.376C512.933,61.717 513.2,60.892 513.6,59.9L522.2,41.3L520.2,41.3C518.548,41.367 517.252,40.946 516.311,40.039C515.37,39.132 514.9,37.852 514.9,36.2L514.9,34.3C514.9,32.688 515.347,31.452 516.241,30.591C517.135,29.73 518.421,29.3 520.1,29.3L549.3,29.3C550.837,29.3 552.054,29.73 552.952,30.591C553.851,31.452 554.3,32.688 554.3,34.3L554.3,36.2C554.3,37.852 553.83,39.132 552.889,40.039C551.948,40.946 550.718,41.367 549.2,41.3L547.1,41.3L556.9,63.7C555.7,64.367 554.364,65.254 552.892,66.361C551.42,67.468 550.356,68.548 549.7,69.6L536.9,41.4L532.3,41.4L521.7,64.083L521.7,97.6L543.1,97.6C543.167,99.133 543.483,100.717 544.05,102.35C544.617,103.983 545.267,105.467 546,106.8L521.7,106.8ZM574.025,60.8C571.342,60.8 569.1,59.884 567.3,58.052C565.5,56.22 564.6,53.996 564.6,51.381C564.6,48.766 565.5,46.565 567.3,44.779C569.1,42.993 571.333,42.1 574,42.1L574,60.8C574,58.133 574.876,55.9 576.629,54.1C578.382,52.3 580.566,51.4 583.181,51.4C585.796,51.4 588.003,52.3 589.802,54.1C591.601,55.9 592.5,58.133 592.5,60.8L574.025,60.8Z" fill="#FFFFFF"/>
</g>
<defs>
<filter id="filter393_129" x="-4" y="-4" width="89" height="80" filterUnits="userSpaceOnUse" color-interpolation-filters="sRGB">
<feFlood flood-opacity="0" result="BackgroundImageFix"/>
<feColorMatrix in="SourceAlpha" type="matrix" values="0 0 0 0 0 0 0 0 0 0 0 0 0 0 0 0 0 0 127 0" result="hardAlpha"/>
<feMorphology radius="0" operator="dilate" in="SourceAlpha" result="0dropshadow"/>
<feOffset dx="0" dy="4"/>
<feGaussianBlur stdDeviation="2"/>
<feComposite in2="hardAlpha" operator="out"/>
<feColorMatrix type="matrix" values="0 0 0 0 0 0 0 0 0 0 0 0 0 0 0 0 0 0 0.25 0"/>
<feBlend mode="normal" in2="BackgroundImageFix" result="0dropshadow"/>
<feBlend mode="normal" in="SourceGraphic" in2="0dropshadow" result="shape"/>
</filter>
<filter id="filter393_130" x="230" y="-4" width="89" height="80" filterUnits="userSpaceOnUse" color-interpolation-filters="sRGB">
<feFlood flood-opacity="0" result="BackgroundImageFix"/>
<feColorMatrix in="SourceAlpha" type="matrix" values="0 0 0 0 0 0 0 0 0 0 0 0 0 0 0 0 0 0 127 0" result="hardAlpha"/>
<feMorphology radius="0" operator="dilate" in="SourceAlpha" result="0dropshadow"/>
<feOffset dx="0" dy="4"/>
<feGaussianBlur stdDeviation="2"/>
<feComposite in2="hardAlpha" operator="out"/>
<feColorMatrix type="matrix" values="0 0 0 0 0 0 0 0 0 0 0 0 0 0 0 0 0 0 0.25 0"/>
<feBlend mode="normal" in2="BackgroundImageFix" result="0dropshadow"/>
<feBlend mode="normal" in="SourceGraphic" in2="0dropshadow" result="shape"/>
</filter>
<filter id="filter393_131" x="464" y="-4" width="89" height="80" filterUnits="userSpaceOnUse" color-interpolation-filters="sRGB">
<feFlood flood-opacity="0" result="BackgroundImageFix"/>
<feColorMatrix in="SourceAlpha" type="matrix" values="0 0 0 0 0 0 0 0 0 0 0 0 0 0 0 0 0 0 127 0" result="hardAlpha"/>
<feMorphology radius="0" operator="dilate" in="SourceAlpha" result="0dropshadow"/>
<feOffset dx="0" dy="4"/>
<feGaussianBlur stdDeviation="2"/>
<feComposite in2="hardAlpha" operator="out"/>
<feColorMatrix type="matrix" values="0 0 0 0 0 0 0 0 0 0 0 0 0 0 0 0 0 0 0.25 0"/>
<feBlend mode="normal" in2="BackgroundImageFix" result="0dropshadow"/>
<feBlend mode="normal" in="SourceGraphic" in2="0dropshadow" result="shape"/>
</filter>
</defs>
</svg>
