<svg width="24" height="22" viewBox="0 0 24 22" fill="none" xmlns="http://www.w3.org/2000/svg" xmlns:xlink="http://www.w3.org/1999/xlink">
<path d="M17.73,13.685C17.435,13.976 17.3,14.396 17.367,14.808L18.378,20.505C18.463,20.988 18.263,21.476 17.866,21.755C17.477,22.045 16.96,22.08 16.535,21.848L11.499,19.173C11.324,19.079 11.129,19.028 10.93,19.022L10.622,19.022C10.515,19.038 10.41,19.073 10.315,19.126L5.277,21.813C5.028,21.941 4.746,21.986 4.47,21.941C3.796,21.811 3.347,21.158 3.457,20.469L4.47,14.773C4.537,14.357 4.401,13.934 4.107,13.639L0,9.587C-0.343,9.247 -0.463,8.738 -0.306,8.278C-0.153,7.82 0.236,7.485 0.705,7.41L6.357,6.575C6.787,6.53 7.165,6.264 7.358,5.87L9.849,0.672C9.908,0.556 9.984,0.449 10.076,0.359L10.178,0.278C10.232,0.218 10.293,0.168 10.362,0.127L10.485,0.081L10.679,0L11.158,0C11.585,0.045 11.962,0.306 12.158,0.695L14.682,5.87C14.864,6.249 15.217,6.512 15.626,6.575L21.278,7.41C21.755,7.479 22.154,7.815 22.313,8.278C22.462,8.743 22.333,9.252 21.983,9.587L17.73,13.685Z" fill="url(#pf_0_393_85)"/>
<defs>
<linearGradient id="pf_0_393_85" x1="11" y1="0" x2="11" y2="22" gradientUnits="userSpaceOnUse">
<stop stop-color="#E4BB27"/>
<stop offset="1" stop-color="#CBA210"/>
<stop offset="1" stop-color="#FFC700"/>
<stop offset="1" stop-color="#ECC848" stop-opacity="0"/>
</linearGradient>
</defs>
</svg>
