<svg width="24" height="22" viewBox="0 0 24 22" fill="none" xmlns="http://www.w3.org/2000/svg" xmlns:xlink="http://www.w3.org/1999/xlink">
<path d="M18.543,13.685C18.248,13.976 18.113,14.396 18.18,14.808L19.191,20.505C19.276,20.988 19.076,21.476 18.679,21.755C18.29,22.045 17.773,22.08 17.349,21.848L12.312,19.173C12.137,19.079 11.942,19.028 11.743,19.022L11.435,19.022C11.328,19.038 11.224,19.073 11.128,19.126L6.09,21.813C5.841,21.941 5.559,21.986 5.283,21.941C4.61,21.811 4.16,21.158 4.271,20.469L5.283,14.773C5.35,14.357 5.215,13.934 4.92,13.639L0.814,9.587C0.47,9.247 0.351,8.738 0.508,8.278C0.66,7.82 1.049,7.485 1.519,7.41L7.171,6.575C7.6,6.53 7.978,6.264 8.171,5.87L10.662,0.672C10.721,0.556 10.797,0.449 10.889,0.359L10.992,0.278C11.045,0.218 11.106,0.168 11.175,0.127L11.299,0.081L11.492,0L11.971,0C12.398,0.045 12.775,0.306 12.972,0.695L15.495,5.87C15.677,6.249 16.031,6.512 16.439,6.575L22.091,7.41C22.569,7.479 22.968,7.815 23.126,8.278C23.275,8.743 23.146,9.252 22.796,9.587L18.543,13.685Z" fill="url(#pf_0_393_86)"/>
<defs>
<linearGradient id="pf_0_393_86" x1="11.813" y1="0" x2="11.813" y2="22" gradientUnits="userSpaceOnUse">
<stop stop-color="#E4BB27"/>
<stop offset="1" stop-color="#CBA210"/>
<stop offset="1" stop-color="#FFC700"/>
<stop offset="1" stop-color="#ECC848" stop-opacity="0"/>
</linearGradient>
</defs>
</svg>
