<svg width="24" height="22" viewBox="0 0 24 22" fill="none" xmlns="http://www.w3.org/2000/svg" xmlns:xlink="http://www.w3.org/1999/xlink">
<path d="M18.103,13.685C17.809,13.976 17.673,14.396 17.74,14.808L18.751,20.505C18.837,20.988 18.637,21.476 18.24,21.755C17.851,22.045 17.333,22.08 16.909,21.848L11.872,19.173C11.697,19.079 11.503,19.028 11.304,19.022L10.996,19.022C10.889,19.038 10.784,19.073 10.689,19.126L5.651,21.813C5.402,21.941 5.12,21.986 4.843,21.941C4.17,21.811 3.721,21.158 3.831,20.469L4.843,14.773C4.91,14.357 4.775,13.934 4.48,13.639L0.374,9.587C0.031,9.247 -0.089,8.738 0.068,8.278C0.22,7.82 0.609,7.485 1.079,7.41L6.731,6.575C7.161,6.53 7.538,6.264 7.732,5.87L10.222,0.672C10.281,0.556 10.358,0.449 10.45,0.359L10.552,0.278C10.606,0.218 10.667,0.168 10.735,0.127L10.859,0.081L11.052,0L11.531,0C11.959,0.045 12.335,0.306 12.532,0.695L15.055,5.87C15.237,6.249 15.591,6.512 15.999,6.575L21.651,7.41C22.129,7.479 22.528,7.815 22.686,8.278C22.835,8.743 22.707,9.252 22.356,9.587L18.103,13.685Z" fill="url(#pf_0_393_167)"/>
<defs>
<linearGradient id="pf_0_393_167" x1="11.374" y1="0" x2="11.374" y2="22" gradientUnits="userSpaceOnUse">
<stop stop-color="#E4BB27"/>
<stop offset="1" stop-color="#CBA210"/>
<stop offset="1" stop-color="#FFC700"/>
<stop offset="1" stop-color="#ECC848" stop-opacity="0"/>
</linearGradient>
</defs>
</svg>
