<svg width="54" height="34" viewBox="0 0 54 34" fill="none" xmlns="http://www.w3.org/2000/svg" xmlns:xlink="http://www.w3.org/1999/xlink">
<path d="M50.141,13.6L13.138,13.6L22.013,5.822C22.739,5.183 23.148,4.315 23.148,3.411C23.148,2.506 22.739,1.639 22.013,0.999C21.286,0.359 20.301,0 19.273,0C18.246,0 17.26,0.359 16.534,0.999L1.1,14.585C0.748,14.909 0.473,15.289 0.289,15.706C-0.096,16.533 -0.096,17.461 0.289,18.288C0.473,18.705 0.748,19.086 1.1,19.409L16.534,32.995C16.892,33.314 17.319,33.566 17.789,33.739C18.26,33.911 18.764,34 19.273,34C19.783,34 20.287,33.911 20.757,33.739C21.227,33.566 21.654,33.314 22.013,32.995C22.375,32.68 22.662,32.304 22.857,31.89C23.053,31.476 23.154,31.032 23.154,30.584C23.154,30.135 23.053,29.691 22.857,29.277C22.662,28.863 22.375,28.488 22.013,28.172L13.138,20.394L50.141,20.394C51.165,20.394 52.146,20.036 52.87,19.399C53.593,18.762 54,17.898 54,16.997C54,16.096 53.593,15.232 52.87,14.595C52.146,13.958 51.165,13.6 50.141,13.6Z" fill="#000000"/>
</svg>
