<svg width="54" height="54" viewBox="0 0 54 54" fill="none" xmlns="http://www.w3.org/2000/svg" xmlns:xlink="http://www.w3.org/1999/xlink">
<path d="M38.26,0C47.219,0 52.208,4.806 52.208,13.041L52.208,40.932C52.208,49.302 47.219,54 38.26,54L13.951,54C5.134,54 0,49.302 0,40.932L0,13.041C0,4.806 5.134,0 13.951,0L38.26,0ZM14.734,37.098C13.864,37.017 13.023,37.395 12.559,38.097C12.095,38.772 12.095,39.663 12.559,40.365C13.023,41.04 13.864,41.445 14.734,41.337L37.474,41.337C38.631,41.229 39.504,40.308 39.504,39.231C39.504,38.124 38.631,37.206 37.474,37.098L14.734,37.098ZM37.474,24.783L14.734,24.783C13.484,24.783 12.472,25.731 12.472,26.892C12.472,28.053 13.484,28.998 14.734,28.998L37.474,28.998C38.721,28.998 39.736,28.053 39.736,26.892C39.736,25.731 38.721,24.783 37.474,24.783ZM23.404,12.555L14.734,12.555L14.734,12.582C13.484,12.582 12.472,13.527 12.472,14.688C12.472,15.849 13.484,16.794 14.734,16.794L23.404,16.794C24.654,16.794 25.669,15.849 25.669,14.658C25.669,13.5 24.654,12.555 23.404,12.555Z" fill="#0A0909"/>
</svg>
