<svg width="56" height="54" viewBox="0 0 56 54" fill="none" xmlns="http://www.w3.org/2000/svg" xmlns:xlink="http://www.w3.org/1999/xlink">
<path d="M19.244,50.688L19.244,42.432C19.244,40.325 21.092,38.616 23.373,38.616L31.709,38.616C32.804,38.616 33.855,39.018 34.629,39.734C35.403,40.449 35.838,41.42 35.838,42.432L35.838,50.688C35.832,51.564 36.203,52.407 36.871,53.028C37.539,53.65 38.448,54 39.396,54L45.084,54C47.74,54.006 50.29,53.036 52.17,51.302C54.051,49.569 55.108,47.215 55.108,44.76L55.108,21.241C55.108,19.258 54.157,17.377 52.511,16.105L33.164,1.825C29.798,-0.679 24.976,-0.598 21.711,2.017L2.805,16.105C1.081,17.339 0.051,19.226 0,21.241L0,44.736C0,49.852 4.488,54 10.024,54L15.582,54C17.551,54 19.152,52.532 19.166,50.712L19.244,50.688Z" fill="#000000"/>
</svg>
