<svg width="22" height="22" viewBox="0 0 22 22" fill="none" xmlns="http://www.w3.org/2000/svg" xmlns:xlink="http://www.w3.org/1999/xlink">
<path d="M17.356,13.685C17.061,13.976 16.926,14.396 16.993,14.808L18.004,20.505C18.089,20.988 17.889,21.476 17.492,21.755C17.103,22.045 16.586,22.08 16.162,21.848L11.125,19.173C10.95,19.079 10.756,19.028 10.557,19.022L10.248,19.022C10.141,19.038 10.037,19.073 9.941,19.126L4.903,21.813C4.654,21.941 4.372,21.986 4.096,21.941C3.423,21.811 2.974,21.158 3.084,20.469L4.096,14.773C4.163,14.357 4.028,13.934 3.733,13.639L-0.373,9.587C-0.717,9.247 -0.836,8.738 -0.679,8.278C-0.527,7.82 -0.138,7.485 0.332,7.41L5.984,6.575C6.414,6.53 6.791,6.264 6.985,5.87L9.475,0.672C9.534,0.556 9.61,0.449 9.702,0.359L9.805,0.278C9.858,0.218 9.92,0.168 9.988,0.127L10.112,0.081L10.305,0L10.784,0C11.212,0.045 11.588,0.306 11.785,0.695L14.308,5.87C14.49,6.249 14.844,6.512 15.252,6.575L20.904,7.41C21.382,7.479 21.781,7.815 21.939,8.278C22.088,8.743 21.959,9.252 21.609,9.587L17.356,13.685Z" fill="#858585"/>
</svg>
