<svg width="48" height="48" viewBox="0 0 48 48" fill="none" xmlns="http://www.w3.org/2000/svg" xmlns:xlink="http://www.w3.org/1999/xlink">
<path d="M42.504,16.073C43.036,16.073 43.518,16.282 43.899,16.635C44.255,17.012 44.434,17.48 44.382,17.974C44.382,18.137 42.961,34.313 42.149,41.122C41.641,45.3 38.648,47.837 34.158,47.906C30.706,47.976 27.332,48 24.01,48C20.483,48 17.034,47.976 13.686,47.906C9.347,47.813 6.351,45.23 5.869,41.122C5.034,34.289 3.638,18.137 3.612,17.974C3.587,17.48 3.763,17.012 4.121,16.635C4.473,16.282 4.982,16.073 5.516,16.073L42.504,16.073ZM29.506,0C31.863,0 33.969,1.481 34.579,3.593L35.014,5.345C35.367,6.773 36.742,7.783 38.324,7.783L46.099,7.783C47.136,7.783 48,8.558 48,9.545L48,10.457C48,11.419 47.136,12.218 46.099,12.218L1.904,12.218C0.864,12.218 0,11.419 0,10.457L0,9.545C0,8.558 0.864,7.783 1.904,7.783L9.679,7.783C11.258,7.783 12.633,6.773 12.988,5.347L13.395,3.71C14.028,1.481 16.111,0 18.494,0L29.506,0Z" fill="#C2C2C2"/>
</svg>
