<svg width="24" height="22" viewBox="0 0 24 22" fill="none" xmlns="http://www.w3.org/2000/svg" xmlns:xlink="http://www.w3.org/1999/xlink">
<path d="M18.916,13.685C18.622,13.976 18.487,14.396 18.554,14.808L19.565,20.505C19.65,20.988 19.45,21.476 19.053,21.755C18.664,22.045 18.147,22.08 17.722,21.848L12.686,19.173C12.51,19.079 12.316,19.028 12.117,19.022L11.809,19.022C11.702,19.038 11.597,19.073 11.502,19.126L6.464,21.813C6.215,21.941 5.933,21.986 5.656,21.941C4.983,21.811 4.534,21.158 4.644,20.469L5.656,14.773C5.724,14.357 5.588,13.934 5.294,13.639L1.187,9.587C0.844,9.247 0.724,8.738 0.881,8.278C1.034,7.82 1.423,7.485 1.892,7.41L7.544,6.575C7.974,6.53 8.352,6.264 8.545,5.87L11.036,0.672C11.095,0.556 11.171,0.449 11.263,0.359L11.365,0.278C11.419,0.218 11.48,0.168 11.548,0.127L11.672,0.081L11.866,0L12.344,0C12.772,0.045 13.148,0.306 13.345,0.695L15.869,5.87C16.051,6.249 16.404,6.512 16.813,6.575L22.464,7.41C22.942,7.479 23.341,7.815 23.499,8.278C23.648,8.743 23.52,9.252 23.17,9.587L18.916,13.685Z" fill="url(#pf_0_393_168)"/>
<defs>
<linearGradient id="pf_0_393_168" x1="12.187" y1="0" x2="12.187" y2="22" gradientUnits="userSpaceOnUse">
<stop stop-color="#E4BB27"/>
<stop offset="1" stop-color="#CBA210"/>
<stop offset="1" stop-color="#FFC700"/>
<stop offset="1" stop-color="#ECC848" stop-opacity="0"/>
</linearGradient>
</defs>
</svg>
